<?xml version="1.0" encoding="UTF-8"?>
<svg width="1289" height="1179" version="1.1" viewBox="0 0 1289 1179" xmlns="http://www.w3.org/2000/svg" xmlns:xlink="http://www.w3.org/1999/xlink">
 <g id="background">
  <image id="main-background" width="1289" height="1179" href="/local/floorplan/floorplan.png" preserveAspectRatio="none" xlink:href="file:///D:/floorplan/floorplan.png"/>
  <g id="light-overlays">
   <image id="light_overlay.wc_main" width="1289" height="1179" href="/local/floorplan/floorplan_001.png" preserveAspectRatio="none" xlink:href="file:///D:/floorplan/floorplan_001.png"/>
   <image id="light_overlay.ebedlo_main" width="1289" height="1179" href="/local/floorplan/floorplan_002.png" preserveAspectRatio="none" xlink:href="file:///D:/floorplan/floorplan_002.png"/>
   <image id="light_overlay.eloszoba_main" width="1289" height="1179" href="/local/floorplan/floorplan_003.png" preserveAspectRatio="none" xlink:href="file:///D:/floorplan/floorplan_003.png"/>
   <image id="light_overlay.folyoso_main" width="1312" height="1179" href="/local/floorplan/floorplan_004.png" preserveAspectRatio="none" xlink:href="file:///D:/floorplan/floorplan_004.png"/>
   <image id="light_overlay.furdo_main" width="1289" height="1179" href="/local/floorplan/floorplan_005.png" preserveAspectRatio="none" xlink:href="file:///D:/floorplan/floorplan_005.png"/>
   <image id="light_overlay.halo_main" width="1289" height="1179" href="/local/floorplan/floorplan_006.png" preserveAspectRatio="none" xlink:href="file:///D:/floorplan/floorplan_006.png"/>
   <image id="light_overlay.kamra_main" width="1289" height="1179" href="/local/floorplan/floorplan_007.png" preserveAspectRatio="none" xlink:href="file:///D:/floorplan/floorplan_007.png"/>
   <image id="light_overlay.kazan_main" width="1289" height="1179" href="/local/floorplan/floorplan_008.png" preserveAspectRatio="none" xlink:href="file:///D:/floorplan/floorplan_008.png"/>
   <image id="light_overlay.konyha_main" width="1289" height="1179" href="/local/floorplan/floorplan_009.png" preserveAspectRatio="none" xlink:href="file:///D:/floorplan/floorplan_009.png"/>
   <image id="light_overlay.konyha_pult" width="1289" height="1179" href="/local/floorplan/floorplan_010.png" preserveAspectRatio="none" xlink:href="file:///D:/floorplan/floorplan_010.png"/>
   <image id="light_overlay.nappali_asztali_lampa" width="1289" height="1179" href="/local/floorplan/floorplan_011.png" preserveAspectRatio="none" xlink:href="file:///D:/floorplan/floorplan_011.png"/>
   <image id="light_overlay.nappali_main" width="1289" height="1179" href="/local/floorplan/floorplan_012.png" preserveAspectRatio="none" xlink:href="file:///D:/floorplan/floorplan_012.png"/>
   <image id="light_overlay.szoba_main" width="1289" height="1179" href="/local/floorplan/floorplan_013.png" preserveAspectRatio="none" xlink:href="file:///D:/floorplan/floorplan_013.png"/>
   <image id="light_overlay.aroma_diffuser_nightlight" width="1289" height="1179" href="/local/floorplan/floorplan_014.png" preserveAspectRatio="none" xlink:href="file:///D:/floorplan/floorplan_014.png"/>
  </g>
 </g>
 <g id="areas">
  <g id="area.wc">
   <path id="path988" d="m569.1 996.8 131.65 0.276v-141.03l-131.65-0.27599z" fill="none" stroke="#000" stroke-width="1px"/>
   <use id="light.wc_main" xlink:href="#path988"/>
  </g>
  <g id="area.ebedlo">
   <path id="path986" d="m336.74 636.83 380.26 0.19516 0.8782-492.86-379.77-0.29273z" fill="none" stroke="#000" stroke-width="1px"/>
   <use id="light.ebedlo_main" xlink:href="#path986"/>
  </g>
  <g id="area.eloszoba">
   <path id="path984" d="m320.57 827.76 1.3799-331.19-142.55-0.13799-1.104 331.6z" fill="none" stroke="#000" stroke-width="1px"/>
   <use id="light.eloszoba_main" xlink:href="#path984"/>
  </g>
  <g id="area.folyoso">
   <path id="path982" d="m939.8 844.77-0.3903-191.54-206.67-0.3903 0.1951 52.106-15.807-0.19515 0.1952-51.423-147.05-1.0733-0.4878 192.32z" fill="none" stroke="#000" stroke-width="1px"/>
   <use id="light.folyoso_main" xlink:href="#path982"/>
  </g>
  <g id="area.furdo">
   <path id="path980" d="m734.8 855.89-0.5854 295.27 205.98 0.3903-0.098-294.49z" fill="none" stroke="#000" stroke-width="1px"/>
   <use id="light.furdo_main" xlink:href="#path980"/>
  </g>
  <g id="area.halo">
   <path id="path978" d="m321.81 480.98 0.96596-457.04-293.72 0.27599-1.7939 478.08 127.71 0.20699 0.27599-21.32z" fill="none" stroke="#000" stroke-width="1px"/>
   <use id="light.halo_main" xlink:href="#path978"/>
  </g>
  <g id="area.kamra">
   <path id="path976" d="m569.4 1011.9-0.2927 139.05 145.88 0.1952-0.2927-138.36z" fill="none" stroke="#000" stroke-width="1px"/>
   <use id="light.kamra_main" xlink:href="#path976"/>
  </g>
  <g id="area.kazan">
   <path id="path974" d="m319.47 1150.1 1.1709-291.27-142.56 0.0976-0.78061 291.17z" fill="none" stroke="#000" stroke-width="1px"/>
   <use id="light.kazan_main" xlink:href="#path974"/>
  </g>
  <g id="area.konyha">
   <path id="path972" d="m553 1151.1 1.6588-498.52-218.18-0.29273-1.0733 497.93z" fill="none" stroke="#000" stroke-width="1px"/>
   <use id="light.konyha_main" xlink:href="#path972"/>
  </g>
  <g id="area.nappali">
   <path id="path970" d="m1265.2 637.71-0.9758-611.51-530.43-1.0733-0.8782 611.71z" fill="none" stroke="#000" stroke-width="1px"/>
   <use id="light.nappali_main" xlink:href="#path970"/>
  </g>
  <g id="area.szoba">
   <path id="path968" d="m1264.9 1151.6v-497.84l-309.51-0.78061 0.5854 497.84z" fill="none" stroke="#000" stroke-width="1px"/>
   <use id="light.szoba_main" xlink:href="#path968"/>
  </g>
 </g>
 <g id="entities" stroke="#00adff">
  <path id="climate.honeywell_home_termosztat" d="m319.56 890.05-13.27 13.466-68.499-0.3903v-15.807l-11.709-0.39031s-1.2803 7.6197-4.0982 7.3182c-4.8078-0.51432-6.0772-13.831-4.9764-18.54 1.3917-5.9521 2.7212-14.692 4.9764-14.734 2.3361-0.0433 2.5591 2.1467 3.22 7.611h12.392v-8.977h69.865l12.368 0.0732z" fill="none" stroke-width="1px"/>
  <path id="climate.gree_klima" d="m340.3 391.56 11.867 7.7277 23.321-0.13799s6.766 0.0413 9.7976-1.242c1.0849-0.45923 2.7621-1.0298 2.7599-2.2079-0.079-42.928 0.1179-103.8 0.552-150.83 0.01-1.1077-1.2955-2.3299-2.2079-2.4839-0.9037-0.15252-2.1456-0.21666-2.6219-0.82796-0.62073-0.79656-1.8896-1.2196-2.6219-1.5179-0.76397-0.31123-2.5771-0.13286-2.8979-0.41399-0.34245-0.30013-0.50889-0.94924-0.96596-0.96595-11.378-0.4159-36.016-0.55198-36.016-0.55198s-1.5179 154-0.96595 153.45z" fill="none" stroke-width="1px"/>
  <path id="switch.sonoff_illatosito" d="m580.7 965.76 1.1709-6.3425s3.8563-5.2025 9.3674-5.1716c5.949 0.0334 8.8794 6.1473 8.8794 6.1473l-0.3903 11.709s-4.2466 7.2747-10.441 7.2207c-6.2895-0.0548-8.9771-6.8304-8.9771-6.8304z" fill="none" stroke-width="1px"/>
  <path id="switch.sonoff_furdo_szelloztetes" d="m881.8 1150.5-19.181-1e-4 -3.3864-7.3992 18.109 0.01z" fill="none" stroke-width="1px"/>
  <path id="switch.sonoff_furdoszoba_futes" d="m884.8 893.72s22.493 25.686 33.981 39.484c0.3065 0.36815 1.1581-0.68022 1.4465-0.28353 0.4868 0.66979 0.5896 3.0362-0.067 3.5091-0.472 0.34021-1.2246-0.0862-1.2246-0.0862s-0.6788 5.4296-1.2938 9.6768c-0.9581 6.6166-1.3799 20.009-1.3799 20.009-0.7219 12.547 0.7653 24.32 3.0359 36.844h0.8279c0.322 0.506 0.414 1.5524 0.414 1.5524-0.2185 0.4255 0.045 0.6903-0.6555 1.2765-0.667 0.322-1.1959 0.6785-1.8284 0.069-0.529-1.127-0.092-1.2879-0.138-1.9319l-35.602-53.404s-1.8039-17.85-1.104-26.633c0.7771-9.7524 3.5879-30.083 3.5879-30.083z" fill="none" stroke-width="1px"/>
  <path id="switch.hipad_xpro_kepernyo" d="m368.06 475-6.3913-1.5612 0.24395-28.687 6.1961 2.8297z" fill="none" stroke-width="1px"/>
  <path id="light.nappali_asztali_lampa" d="m1159.7 141.28c0.1037 0.38008 0.3107 1.139 0.2989 1.7942-0.012 0.65514-0.2417 1.2071-0.2641 1.5753-0.022 0.36825 0.1616 0.55226 0.6561 1.0007 0.4944 0.44845 1.2994 1.1614 2.0469 1.5289 0.7474 0.36752 1.4374 0.39052 2.484 0.71276 1.0465 0.32224 2.4494 0.94319 3.3118 1.2419 0.8623 0.29869 1.1842 0.2757 2.0123 0.27574 0.828 4e-5 2.1619 0.023 3.1621-0.0921 1.0002-0.11511 1.6672-0.3681 2.3341-0.70155 0.6668-0.33345 1.3338-0.74745 2.2076-1.5293s1.9548-1.9318 2.6561-2.932c0.7014-1.0002 1.0234-1.8512 1.2989-3.3622 0.2754-1.511 0.5043-3.6824 0.7942-5.4842s0.6409-3.2338 0.4573-4.6475c-0.1836-1.4138-0.9026-2.8098-2.201-3.5223-1.2984-0.71251-3.1763-0.74034-5.5562-0.73604-2.3799 4e-3 -5.2614 0.0408-7.2775 0.38091-2.0161 0.34013-3.1661 0.98412-4.4657 2.1227-1.2996 1.1386-2.7485 2.7715-3.45 4.8534-0.7014 2.0819-0.6554 4.6117-0.6324 5.8762 0.023 1.2644 0.023 1.2645 0.1266 1.6446z" fill="none" stroke-width="1px"/>
  <path id="fan.aroma_diffuser" d="m1176 186.39c-2.8527-0.97807-6.4955-0.81545-9.6397 0.33398-3.1442 1.1494-5.7888 3.2857-8.4234 5.9773-2.6347 2.6916-5.2592 5.9382-5.2293 8.9851 0.03 3.0468 2.7133 5.8928 5.039 7.6977s4.2938 2.5694 6.1411 2.731c1.8473 0.16159 3.5752-0.27889 5.6814-1.1816 2.1061-0.90273 4.5894-2.2669 7.2752-4.4335 2.6859-2.1666 5.5719-5.1336 6.6279-7.7495 1.0559-2.616 0.2805-4.8812-1.1382-7.0728-1.4187-2.1917-3.4813-4.3094-6.334-5.2875z" fill="none" stroke-width="1px"/>
  <use id="light.aroma_diffuser_nightlight" xlink:href="fan.aroma_diffuser"/>
  <path id="media_player.samsung_q80_series_65" d="m859 603.56 42.153 0.39031s4.2944-12.294 31.615-14.441c24.526 2.6682 29.468 14.441 29.468 14.441 52.171 0.6509 81.574 1.1709 81.574 1.1709l0.1952 2.7321-30.054 4.6837-50.935-0.19515s-8.911 8.7829-30.249 9.3673c-25.564-1.7554-29.273-8.7819-29.273-8.7819l-43.714-3.1224z" fill="none" stroke-width="1px"/>
  <path id="binary_sensor.nappali_ablak_contact" d="m734.3 183.01 83.135-1.9515 23.809-60.693-2.537-0.19515-0.3903-2.537-101.28 2.9273 0.3903 2.1467-3.5127 0.3903z" fill="none" stroke-width="1px"/>
  <path id="binary_sensor.sonoff_bejarati_ajto" d="m275.85 572.73-80.793-4.6837v124.51l80.013-16.393z" fill="none" stroke-width="1px"/>
  <path id="binary_sensor.haloszoba_ablak_contact" d="m292.63 111.39-92.893 0.78061-65.181-71.036 108.51 0.78061z" fill="none" stroke-width="1px"/>
  <path id="binary_sensor.wc_contact" d="m665.7 835.35-2.7599-41.536-74.655 0.55198-12.005 40.57z" fill="none" stroke-width="1px"/>
  <path id="binary_sensor.kamra_contact" d="m509.5 1037.8 43.33 0.138-0.138 77.691-55.75-59.337 11.868-32.015z" fill="none" stroke-width="1px"/>
  <path id="binary_sensor.gyerekszoba_ablak_contact" d="m1170.1 964.4-0.3356 103.96 83.378 74.725-0.4524-121.03z" fill="none" stroke-width="1px"/>
  <path id="binary_sensor.konyha_ablak_contact" d="m551.17 1144.9-115.77-0.1001 32.492-74.868 39.729 0.3555 43.957 45.821z" fill="none" stroke-width="1px"/>
  <path id="binary_sensor.furdoszoba_ablak_contact" d="m817.43 1143.2-19.787-0.023-18.847-74.509 20.103 0.061m27.924 0.084 25.966 0.078 33.14 74.132-61.644 0.1839" fill="none" stroke-width="1px"/>
 </g>
 <g id="sensors">
  <g id="nappali" font-family="Ubuntu" font-size="50px" font-weight="bold" stroke-width=".99772" text-anchor="end">
   <text id="sensor.nappali_temperature" x="1070.333" y="65.694542" text-align="end"><tspan>T</tspan></text>
   <text id="sensor.nappali_humidity" x="1070.333" y="120.694542" text-align="end"><tspan>H</tspan></text>
  </g>
  <g id="ebedlo" font-family="Ubuntu" font-size="50px" font-weight="bold" stroke-width=".99772" text-anchor="end">
   <text id="sensor.ebedlo_temperature" x="554.62506" y="352.29755" text-align="end"><tspan>T</tspan></text>
   <text id="sensor.ebedlo_humidity" x="554.62506" y="407.29755" text-align="end"><tspan>H</tspan></text>
  </g>
  <g id="halo" font-family="Ubuntu" font-size="50px" font-weight="bold" stroke-width=".99772" text-anchor="end">
   <text id="sensor.haloszoba_temperature" x="131.43605" y="274.41653" text-align="end"><tspan>T</tspan></text>
   <text id="sensor.haloszoba_humidity" x="131.43605" y="329.41653" text-align="end"><tspan>H</tspan></text>
  </g>
  <g id="konyha" font-family="Ubuntu" font-size="50px" font-weight="bold" stroke-width=".99772" text-anchor="end">
   <text id="sensor.konyha_temperature" x="424.45004" y="728.83087" text-align="end"><tspan>T</tspan></text>
   <text id="sensor.konyha_humidity" x="574.45004" y="728.83087" text-align="end"><tspan>H</tspan></text>
  </g>
  <g id="szoba" font-family="Ubuntu" font-size="50px" font-weight="bold" stroke-width=".99772" text-anchor="end">
   <text id="sensor.gyerekszoba_temperature" x="1065.5321" y="1113.0737" text-align="end"><tspan>T</tspan></text>
   <text id="sensor.gyerekszoba_humidity" x="1065.5321" y="1158.0737" text-align="end"><tspan>H</tspan></text>
  </g>
  <g id="furdo1" font-family="Ubuntu" font-size="50px" font-weight="bold" stroke-width=".99722" text-anchor="end">
   <text id="sensor.furdoszoba_homerseklet" x="784.68085" y="1139.7854"><tspan>T</tspan></text>
  </g>
  <g id="furdo2" font-family="Ubuntu" font-size="50px" font-weight="bold" stroke-width=".99722" text-anchor="end">
   <text id="sensor.furdoszoba_paratartalom" x="914.0625" y="1139.7854"><tspan>H</tspan></text>
  </g>
 </g>
</svg>
